# xmcd
#
# Track frame offsets:
#	150
#	18842
#	38755
#	57230
#	74140
#	91829
#	110974
#	132291
#	155380
#	179916
#	197590
#	216396
#	237938
#	266979
#	287308
#	303245
#
# Disc length: 4412 seconds
#
# Revision: 1
# Processed by: cddbd v1.5.2PL0 Copyright (c) Steve Scherf et al.
# Submitted via: audiograbber 1.83.01
#
DISCID=f0113a10
DTITLE=James,Colin - Twentyfive Live
DYEAR=2013
DGENRE=
TTITLE0=Saviour
TTITLE1=Sweets gone sour
TTITLE2=I'm diggin'
TTITLE3=Fool for you
TTITLE4=Sneakin' Sally through the alley
TTITLE5=Shed a little light
TTITLE6=Man's gotta be a stone
TTITLE7=Freedom
TTITLE8=Why'd you lie
TTITLE9=Oh well
TTITLE10=It ain't over yet
TTITLE11=Bad habits
TTITLE12=Stones in my passway/Just came back
TTITLE13=Into the mystic
TTITLE14=Johnny Coolman
TTITLE15=Ain't nothing you can do
EXTD=
EXTT0=
EXTT1=
EXTT2=
EXTT3=
EXTT4=
EXTT5=
EXTT6=
EXTT7=
EXTT8=
EXTT9=
EXTT10=
EXTT11=
EXTT12=
EXTT13=
EXTT14=
EXTT15=
PLAYORDER=
